<svg width="512" height="512" viewBox="0 0 512 512" fill="none" xmlns="http://www.w3.org/2000/svg">
  <!-- Full-bleed background required for maskable icons (no transparent edges) -->
  <rect width="512" height="512" fill="#104C64"/>

  <!-- Pin mark, scaled down and centered so it stays within the ~80% safe-zone circle -->
  <g transform="translate(186, 126) scale(1.4)">
    <path
      d="M50 2C28.46 2 11 19.46 11 41C11 63.5 50 128 50 128C50 128 89 63.5 89 41C89 19.46 71.54 2 50 2Z"
      fill="#FFFFFF"
    />
    <circle cx="50" cy="41" r="26" fill="#104C64"/>
    <g transform="translate(50, 41)">
      <g transform="translate(-14.5,-14.5)" stroke="#C97A56" stroke-width="2.4" stroke-linecap="round" stroke-linejoin="round" fill="none">
        <path d="m7.5 4.27 9 5.15"/>
        <path d="M21 8a2 2 0 0 0-1-1.73l-7-4a2 2 0 0 0-2 0l-7 4A2 2 0 0 0 3 8v8a2 2 0 0 0 1 1.73l7 4a2 2 0 0 0 2 0l7-4A2 2 0 0 0 21 16Z"/>
        <path d="M3.3 7 12 12l8.7-5"/>
        <path d="M12 22V12"/>
      </g>
    </g>
  </g>
</svg>
